# xmcd CD database file
# Copyright (C) 1993-1996 Ti Kan
#
# Track frame offsets:
# 150
# 12495
# 23127
# 34107
# 45715
# 57675
# 70540
# 80907
# 90487
# 99260
# 108407
# 118230
# 129592
# 141655
# 153770
# 165667
# 176612
# 187132
# 198207
# 208740
# 219980
# 229965
# 244607
# 254517
# 265705
# 278102
# 287757
# 299662
# 310310
# 321755
# 331782
#
# Disc length: 4605 seconds
#
# Revision: 0
# Processed by: cddbd v1.4b41PL1 Copyright (c) Steve Scherf et al.
# Submitted via: inCDius 1.1b5
#
DISCID=d511fb1f
DTITLE=Bobby Helms - Fraulein The Classic Years - Disc 1
DYEAR=1900
DGENRE=
TTITLE0=Tennessee Rock' N' Roll
TTITLE1=I Need To Know Now 
TTITLE2=I Don't Owe You Nothing
TTITLE3=Sowin' Teardrops
TTITLE4=(Got A) Heartsick Feeling
TTITLE5=Far Away Heart
TTITLE6=Just A Little Lonesome (One)
TTITLE7=(Now And Then) Theres A Fool Such As I
TTITLE8=I'm Leaving Now (Long Gone Daddy)
TTITLE9=Tonight's The Night
TTITLE10=Jingle Bell Rock
TTITLE11=Captain Santa Claus
TTITLE12=No Other Baby
TTITLE13=Standing At The End Of My World
TTITLE14=My Shoes Keep Walking Back To You
TTITLE15=New River Train
TTITLE16=A Hundred Hearts
TTITLE17=Hurry Baby
TTITLE18=Sad Eyed Baby
TTITLE19=Someone Was Already There
TTITLE20=To My Sorrow
TTITLE21=Lonely River Rhine
TTITLE22=Then Came You
TTITLE23=Just Between Old Sweethearts
TTITLE24=I Can't Take It Like You Can
TTITLE25=My Greatest Weakness
TTITLE26=Yesterday's Champagne
TTITLE27=Yesterday's Lovin'
TTITLE28=Hangin' Around
TTITLE29=Freedom Lovin' Guy
TTITLE30=I've Never Seen Anyone
EXTD=
EXTT0=
EXTT1=
EXTT2=
EXTT3=
EXTT4=
EXTT5=
EXTT6=
EXTT7=
EXTT8=
EXTT9=
EXTT10=
EXTT11=
EXTT12=
EXTT13=
EXTT14=
EXTT15=
EXTT16=
EXTT17=
EXTT18=
EXTT19=
EXTT20=
EXTT21=
EXTT22=
EXTT23=
EXTT24=
EXTT25=
EXTT26=
EXTT27=
EXTT28=
EXTT29=
EXTT30=
PLAYORDER=
